<svg width="24" height="20" viewBox="0 0 24 20" fill="none" xmlns="http://www.w3.org/2000/svg">
<path opacity="0.5" d="M17.4795 1C18.782 1.00005 20.0332 1.47674 21.0332 2.35938L21.2295 2.54102C22.2894 3.56873 22.9274 5.00348 22.9941 6.51465L23 6.81738C22.9921 8.01655 22.5251 9.3805 21.4951 10.8857L21.2812 11.1885C20.4845 12.2868 19.4036 13.4429 18.0498 14.6289L17.4531 15.1387C15.007 17.1787 12.5924 18.6131 11.999 18.9561C11.444 18.6375 9.30565 17.3766 7.03613 15.5625L6.5166 15.1387C5.07965 13.9446 3.91738 12.7769 3.04199 11.6631L2.68457 11.1885C1.58309 9.66451 1.05921 8.28231 1.00488 7.06348L1 6.82227C1.00965 5.35475 1.52081 3.98158 2.43457 2.91602L2.62207 2.70703C3.66887 1.59891 5.05095 1.00008 6.52051 1C8.39797 1 10.1381 2.01369 11.1484 3.65527L12 5.03906L12.8516 3.65527C13.8619 2.01371 15.602 1 17.4795 1Z" stroke="#599676" stroke-width="2"/>
</svg>
