<svg width="24" height="20" viewBox="0 0 24 20" fill="none" xmlns="http://www.w3.org/2000/svg">
<path d="M12 20C11.8786 20 11.7572 19.9698 11.6485 19.9093C11.5303 19.8436 8.7239 18.2735 5.87719 15.9078C4.18998 14.5058 2.84317 13.1151 1.87427 11.7746C0.620463 10.0399 -0.0100507 8.37143 0.000121129 6.81534C0.0120273 5.00464 0.685103 3.3018 1.89551 2.02045C3.12634 0.717504 4.76893 0 6.52079 0C8.76595 0 10.8186 1.2118 12 3.13143C13.1814 1.21184 15.2341 0 17.4793 0C19.1343 0 20.7134 0.647407 21.9258 1.82298C23.2563 3.11305 24.0122 4.93585 23.9998 6.82392C23.9896 8.37731 23.3473 10.0433 22.0907 11.7755C21.1188 13.1154 19.7739 14.5054 18.0933 15.9071C15.257 18.2725 12.4707 19.8426 12.3535 19.9082C12.2442 19.9694 12.122 20 12 20Z" fill="#599676"/>
</svg>
