<svg width="391" height="469" viewBox="0 0 391 469" fill="none" xmlns="http://www.w3.org/2000/svg">
<path d="M185.065 179.774C214.798 142.153 247.392 105.936 275.866 74.3781C287.956 60.9594 299.384 48.315 309.712 36.521L268.329 0.374257C258.275 11.8399 246.961 24.3668 235.042 37.6092C201.671 74.6022 162.922 117.548 128.728 162.856C105.47 136.663 80.5047 111.92 55.8798 87.4838C50.5171 82.1447 45.1665 76.8401 39.8626 71.5579L0.963184 110.406C6.32587 115.745 11.6886 121.084 17.0979 126.446C44.0981 153.232 71.5098 180.416 96.15 209.23C67.3156 253.867 45.7664 299.565 40.2013 343.204L40.0896 344.329C35.7084 395.466 55.8783 437.827 94.0618 457.6C117.68 469.822 145.286 471.34 169.447 462.894C179.659 459.324 189.254 453.991 197.688 446.893C213.675 433.508 248.249 393.845 223.581 315.281L223.315 314.521C213.427 285.903 200.012 259.642 184.267 235.05C251.297 244.001 308.817 274.972 361.226 307.768L390.439 261.214C330.942 224.031 265.037 188.855 185.065 179.774ZM162.309 404.807C150.747 414.512 133.481 416.127 119.382 408.8C101.453 399.515 92.4979 377.901 94.799 349.482C98.6963 319.962 112.462 288 131.832 255.514C148.101 279.497 161.735 304.827 171.187 332.085C181.414 365.006 178.204 391.494 162.309 404.807Z" fill="#D8DF63"/>
</svg>
