<svg width="410" height="436" viewBox="0 0 410 436" fill="none" xmlns="http://www.w3.org/2000/svg">
<path fill-rule="evenodd" clip-rule="evenodd" d="M22.2307 111.821C1.75398 123.644 -5.32708 150.07 6.49514 170.547L146.93 413.787C158.752 434.264 185.179 441.345 205.656 429.523L388.086 324.197C408.563 312.375 415.644 285.948 403.822 265.471L263.387 22.2307C251.565 1.75398 225.138 -5.32707 204.661 6.49514L22.2307 111.821ZM47.3099 137.882L214.614 41.2888C222.503 36.734 232.816 39.4973 237.37 47.3863L263.702 92.9939C268.257 100.883 265.493 111.195 257.604 115.75L90.3002 212.343C82.413 216.897 72.1082 214.151 67.544 206.246L41.2124 160.638C36.6482 152.733 39.4227 142.436 47.3099 137.882ZM107.616 224.604C119.708 217.622 135.397 221.85 142.379 233.944C149.362 246.039 145.179 261.739 133.087 268.721C120.994 275.702 105.306 271.475 98.323 259.38C91.3402 247.286 95.5233 231.585 107.616 224.604ZM259.645 136.842C271.73 129.865 287.415 134.069 294.392 146.154C301.369 158.239 297.167 173.923 285.082 180.9C272.997 187.877 257.313 183.675 250.336 171.59C243.358 159.505 247.56 143.82 259.645 136.842ZM183.637 180.727C195.722 173.75 211.406 177.953 218.383 190.038C225.36 202.123 221.158 217.806 209.073 224.784C196.988 231.761 181.304 227.558 174.327 215.473C167.35 203.388 171.552 187.705 183.637 180.727ZM142.759 285.474C154.844 278.497 170.528 282.7 177.505 294.785C184.483 306.87 180.28 322.553 168.195 329.531C156.11 336.508 140.426 332.305 133.449 320.22C126.472 308.135 130.674 292.452 142.759 285.474ZM218.772 241.588C230.857 234.611 246.541 238.814 253.518 250.899C260.495 262.984 256.293 278.667 244.208 285.645C232.123 292.622 216.439 288.42 209.462 276.335C202.485 264.25 206.687 248.566 218.772 241.588ZM294.815 197.685C306.917 190.698 322.622 194.906 329.609 207.008L364.682 267.758C371.669 279.859 367.461 295.565 355.36 302.551C343.258 309.538 327.553 305.33 320.566 293.228L285.492 232.479C278.505 220.377 282.713 204.672 294.815 197.685ZM177.868 346.284C189.953 339.307 205.637 343.51 212.614 355.595C219.591 367.68 215.389 383.364 203.304 390.341C191.219 397.318 175.535 393.116 168.558 381.031C161.581 368.946 165.783 353.262 177.868 346.284ZM253.881 302.399C265.966 295.421 281.65 299.624 288.627 311.709C295.604 323.794 291.402 339.478 279.317 346.455C267.232 353.432 251.548 349.23 244.571 337.145C237.593 325.06 241.796 309.376 253.881 302.399Z" fill="#D8DF63"/>
</svg>
