<svg width="333" height="358" viewBox="0 0 333 358" fill="none" xmlns="http://www.w3.org/2000/svg">
<path d="M190.261 130.488C198.002 105.967 208.468 72.8046 182.438 23.0441L197.102 14.578L188.685 2.28882e-05L0 108.938L8.41659 123.515L23.0803 115.049C53.1591 162.472 87.1119 169.989 112.218 175.546C129.059 179.274 138.858 181.85 144.393 191.437C149.928 201.024 147.259 210.798 142.067 227.247C134.327 251.768 123.86 284.93 149.89 334.691L135.227 343.157L143.643 357.735L332.328 248.797L323.912 234.219L309.248 242.686C279.169 195.262 245.217 187.746 220.11 182.188C203.269 178.461 193.471 175.885 187.936 166.298C182.401 156.711 185.069 146.937 190.261 130.488ZM190.452 237.695C188.479 239.453 186.655 241.408 185.012 243.553L151.227 287.692C147.783 264.962 153.291 247.501 158.066 232.374C163.395 215.492 168.428 199.547 158.907 183.057L190.452 237.695ZM216.552 198.607C232.039 202.035 249.915 205.997 267.877 220.343L212.76 227.532C210.08 227.882 207.476 228.485 204.966 229.314L173.421 174.678C182.942 191.168 199.267 194.781 216.552 198.607ZM63.8179 136.883C55.0067 129.725 46.1814 120.036 37.6125 106.659L167.905 31.4345C175.206 45.5439 179.185 58.0312 180.977 69.2411L63.8179 136.883Z" fill="#627B5A"/>
</svg>
