<svg width="485" height="570" viewBox="0 0 485 570" fill="none" xmlns="http://www.w3.org/2000/svg">
<path d="M277.181 11.3749C336.427 -23.0759 413.558 29.2813 395.201 100.306L394.98 101.142L394.975 101.162L394.844 101.663C394.255 103.997 394.211 105.325 394.215 105.82C394.219 106.331 394.277 106.543 394.311 106.662C394.549 107.511 394.666 107.855 398.436 114.265L399.927 116.798C403.698 123.233 409.371 133.292 413.998 145.874L414.549 147.396C418.749 159.164 421.571 171.218 423.145 183.442C444.391 191.259 462.497 208.024 470.841 232.323L471.279 233.631L471.282 233.643L471.763 235.134C512.186 361.998 453.499 506.604 329.408 554.344L329.407 554.344C219.924 596.46 87.8048 548.901 30.2938 446.639L30.2917 446.636C-35.1466 330.262 12.4759 180.694 125.508 109.058L125.562 109.023C143.715 97.5467 164.725 94.3833 184.191 98.2994C210.838 59.4048 241.759 32.0213 277.129 11.4048L277.155 11.3903L277.181 11.3749ZM420.846 247.38L420.847 247.381L420.844 247.393L414.754 246.246C407.398 234.34 390.344 231.46 379.349 241.624L378.682 242.232C378.006 242.834 377.306 243.42 376.605 243.977L376.357 244.166C371.091 247.991 363.604 243.354 364.827 236.852C369.663 211.092 368.325 187.452 360.861 166.543L360.501 165.549C357.604 157.671 354.044 151.261 350.726 145.583L349.322 143.193C343.515 133.321 332.343 116.397 339.572 87.736L339.93 86.3622C345.286 66.4147 323.451 50.4051 305.833 60.6501C266.672 83.4766 233.308 116.897 205.225 176.342C202.142 182.838 192.317 181.484 191.308 174.432C188.832 156.047 169.608 148.613 156.021 157.202L153.906 158.56C64.8051 216.508 31.5986 332.664 79.9762 418.698C123.274 495.687 224.273 532.524 306.991 501.881L308.942 501.145C401.761 465.435 450.262 353.337 417.076 251.267C416.484 249.45 415.698 247.774 414.754 246.246L420.844 247.393C420.845 247.388 420.845 247.384 420.846 247.38ZM221.607 254.821C239.998 244.77 259.923 265.563 249.097 283.493L248.236 284.946C239.54 299.933 237.074 313.645 241.301 323.691C242.075 325.533 246.421 334.857 255.221 337.75C262.555 340.148 271.749 337.813 280.447 331.347C292.976 322.032 310.852 329.292 313.187 344.617L313.388 346.011C321.398 404.966 266.631 456.508 206.423 434.831L205.295 434.416C182.038 425.686 163.195 407.56 154.926 387.991L154.534 387.044C142.384 356.977 156.146 327.888 162.021 315.466C173.725 290.726 193.333 270.567 220.316 255.533L221.607 254.821Z" fill="#D8DF63"/>
</svg>
