<svg width="358" height="405" viewBox="0 0 358 405" fill="none" xmlns="http://www.w3.org/2000/svg">
<path d="M39.9491 50.3561C58.7516 -6.83838 138.805 -18.7958 170.569 35.974C175.485 37.5667 184.095 40.488 193.447 45.5001L193.446 45.5004C199.013 48.4837 204.278 51.8274 209.249 55.4863C225.398 52.0452 242.989 54.1174 259.254 63.2912L260.334 63.912L260.343 63.9176C343.832 112.831 383.491 220.593 337.951 308.702L337.949 308.704C298.179 385.641 202.617 423.916 120.724 395.681L120.721 395.68C26.9359 363.339 -18.7384 257.956 7.95872 164.916L7.96742 164.885L7.97648 164.855C12.0097 150.858 19.9536 139.07 30.2244 130.253C28.0837 101.547 31.7334 75.4362 39.9308 50.4129L39.9402 50.3839L39.9491 50.3561ZM121.986 65.9112C115.928 53.8117 98.2682 55.4726 94.0981 68.1571L93.6704 69.4823C84.8007 97.3461 83.2462 127.91 95.1732 168.598C96.4905 173.121 91.0905 176.733 87.527 173.719C78.3138 165.793 65.6639 170.518 62.7479 180.637C43.3471 248.25 77.6894 320.547 139.303 341.794C194.442 360.804 260.537 334.333 287.315 282.53C317.231 224.649 292.2 148.644 231.53 113.099C222.033 107.538 209.943 113.778 208.858 124.794L208.795 125.382C208.726 125.971 208.639 126.563 208.538 127.141C207.778 131.405 202.115 132.518 199.778 128.951L199.669 128.776C190.967 114.29 180.231 103.412 167.736 96.4058L166.52 95.7396C161.673 93.1418 157.14 91.5521 153.044 90.2153L151.317 89.6561C144.178 87.3486 131.341 83.922 122.409 66.7403L121.986 65.9112ZM137.348 199.903C141.981 186.977 160.788 188.489 163.289 201.981L163.5 203.068C165.763 214.192 170.522 221.98 176.964 225.06C178.108 225.608 183.949 228.135 189.376 226.099L189.899 225.887C194.534 223.87 198.021 218.726 199.467 211.774C201.549 201.76 213.463 197.536 221.276 204.025C251.627 229.231 247.475 278.96 208.249 294.668C192.637 300.919 174.859 300.199 162.042 293.845C143.007 284.408 137.087 264.174 134.558 255.534C129.444 238.051 130.382 219.334 137.348 199.903ZM248.531 99.4256L248.538 99.4366L248.544 99.4468C248.54 99.4397 248.536 99.4326 248.531 99.4256Z" fill="#D8DF63"/>
</svg>
