<svg width="271" height="329" viewBox="0 0 271 329" fill="none" xmlns="http://www.w3.org/2000/svg">
<path d="M202.402 71.1265C192.264 64.2412 178.367 70.2753 176.342 82.4338C176.201 83.2957 176.019 84.1708 175.812 85.0164C174.632 89.7727 168.073 90.5377 165.837 86.1745C156.97 68.8925 145.408 55.7198 131.466 47.0031C125.533 43.2925 119.956 41.0754 115.027 39.1127C107.143 35.9687 92.8136 31.1041 84.2061 10.5493C78.3759 -3.34448 58.6316 -2.81296 53.0548 10.9698C40.6837 41.6362 36.3898 75.8181 46.776 122.642C47.9032 127.766 41.6343 131.378 37.8994 127.763C28.253 118.272 13.8471 122.58 9.85442 133.606C-16.7311 207.282 16.0455 290.161 82.919 318.351C142.766 343.575 218.169 319.082 251.774 263.52C289.319 201.438 267.164 115.132 202.402 71.1265ZM163.027 271.123C145.216 276.907 125.518 274.785 111.75 266.771C91.3037 254.87 86.2324 231.949 84.066 222.161C79.6842 202.357 82.1195 181.631 91.3048 160.561C97.414 146.545 118.196 149.624 119.971 164.8C121.51 177.964 126.296 187.432 133.447 191.46C134.717 192.175 141.391 195.608 147.757 193.341C153.057 191.445 157.314 185.988 159.437 178.372C162.495 167.401 176.046 163.595 184.244 171.386C216.089 201.649 207.776 256.589 163.027 271.123Z" fill="#E8F5EE"/>
</svg>
