<svg width="625" height="669" viewBox="0 0 625 669" fill="none" xmlns="http://www.w3.org/2000/svg">
<path d="M376.745 17.6597C425.579 6.4244 468.621 2.3929 499.631 1.16543C515.175 0.550171 527.809 0.63485 536.773 0.891421C541.259 1.01979 544.836 1.1915 547.409 1.34104C548.696 1.41583 549.734 1.48546 550.509 1.54121C550.897 1.56908 551.22 1.59317 551.476 1.61326C551.604 1.6233 551.715 1.63277 551.81 1.64049C551.857 1.64434 551.9 1.6475 551.939 1.65073C551.958 1.65235 551.984 1.65413 551.994 1.65494C552.019 1.65815 552.021 1.91214 547.213 58.4544L552.042 1.65911L624.997 7.86287L601.089 77.0678C559.505 197.431 566.728 265.486 571.473 326.786C573.931 358.55 576.478 394.4 568.819 433.415C560.933 473.584 543.142 513.43 510.777 557.946L510.684 558.072C433.65 663.417 295.228 693.167 182.571 648.996L179.6 663.399L139.199 630.585L125.246 624.617L126.74 620.464L106.794 604.264C-13.6168 506.465 -35.1321 332.571 60.6682 210.926L60.7896 210.772L60.9129 210.618C155.657 92.0063 279.299 40.0794 376.745 17.6597ZM547.213 58.4544C547.148 58.4489 273.948 35.2449 105.449 246.192L104.562 247.326C29.5387 343.828 46.2533 481.661 142.73 560.02C146.096 543.707 149.462 527.394 155.442 510.771C164.789 477.836 179.365 444.278 197.488 418.256C215.3 389.619 233.734 366.212 252.789 348.035C287.974 309.378 320.415 292.263 320.415 292.263C320.415 292.263 305.528 323.205 281.734 368.465C277.747 379.548 271.145 390.941 264.854 404.949C258.252 416.342 254.575 430.04 248.284 444.048C241.993 458.055 238.316 471.753 232.025 485.761L231.666 487.054C227.816 500.513 219.638 516.82 216.076 530.089L215.725 531.382C212.029 544.823 206.305 560.838 202.743 574.107C200.75 579.648 199.066 587.805 197.073 593.346C288.547 632.476 401.304 609.028 463.221 526.39L464.673 524.426C578.642 367.672 456.441 321.19 547.213 58.4544ZM542.516 115.261C542.543 115.263 542.555 115.263 542.553 115.263C542.549 115.263 542.529 115.261 542.495 115.258C542.503 115.259 542.51 115.26 542.516 115.261Z" fill="#D8DF63"/>
</svg>
