<svg width="281" height="352" viewBox="0 0 281 352" fill="none" xmlns="http://www.w3.org/2000/svg">
<path d="M279.199 260.324L227.899 178.209C226.746 176.362 224.988 174.971 222.923 174.271C175.814 158.304 191.257 163.538 150.985 149.89C159.717 133.191 161.749 113.543 156.271 95.2541C145.35 58.7944 144.995 56.7262 141.932 50.3954C130.103 12.3469 92.5211 -7.6537 54.1552 3.83839L51.3374 4.68242C12.9721 16.1743 -7.42598 53.5423 3.61099 91.8284C4.53228 98.801 5.37232 100.722 16.294 137.183C21.7719 155.471 34.2708 170.766 50.7466 179.916C17.6703 222.36 36.9969 197.558 4.05726 239.83C2.71717 241.55 2.0132 243.679 2.06478 245.856L4.35644 342.651C4.50392 348.873 10.5497 353.247 16.5205 351.459L136.139 315.629L107.514 220.068L114.797 211.413L125.639 214.639L154.263 310.2L273.881 274.369C279.855 272.58 282.494 265.599 279.199 260.324ZM55.6049 35.3322L67.4408 31.7869C72.4456 30.2877 77.7158 33.121 79.2117 38.115C80.7075 43.1089 77.8628 48.3729 72.858 49.872L61.0221 53.4174C56.0173 54.9165 50.7471 52.0832 49.2513 47.0893C47.7554 42.0953 50.6001 36.8313 55.6049 35.3322ZM101.033 198.429L85.0139 217.468L53.0937 207.64L69.121 187.073C78.8946 189.424 88.7524 189.629 97.9438 188.115L101.033 198.429ZM101.762 167.895C72.9772 176.517 42.9152 160.12 34.4185 131.754C32.4781 125.279 30.8656 119.922 29.5154 115.436L36.5131 121.074C38.9396 123.029 42.1774 123.662 45.1674 122.767L124.227 99.0854C127.216 98.19 129.573 95.8812 130.525 92.9136L133.271 84.3571C134.609 88.8458 136.208 94.2078 138.147 100.684C146.568 128.796 130.803 159.196 101.762 167.895ZM119.156 193L116.067 182.685C125.031 178.697 133.029 172.955 139.57 165.97L164.265 174.339L143.004 200.097L119.156 193ZM210.646 251.328L178.869 260.847C173.864 262.346 168.594 259.513 167.098 254.519C165.602 249.525 168.447 244.261 173.452 242.762L205.229 233.243C210.233 231.744 215.504 234.577 216.999 239.571C218.495 244.565 215.651 249.829 210.646 251.328Z" fill="#E8F5EE"/>
</svg>
