<svg width="234" height="279" viewBox="0 0 234 279" fill="none" xmlns="http://www.w3.org/2000/svg">
<path d="M80.48 0.368656C90.7209 0.372491 99.3566 4.05877 105.932 8.94445C116.62 16.8867 122.79 28.7469 126.331 36.5573L127.004 38.0626L127.033 38.1284L127.062 38.1953L130.988 47.1929L131.69 48.8202C135.241 57.1842 139.279 68.9115 138.74 81.6022C138.052 97.8057 130.069 112.478 114.829 122.06L114.83 122.061L108.56 126.003C110.052 129.493 112.446 134.228 116.228 140.419L117.484 142.445L117.492 142.458C122.023 149.684 125.686 154.521 128.452 157.695L134.568 153.831L134.644 153.784L134.721 153.737C149.99 144.218 166.665 143.425 181.551 149.863C193.21 154.905 202.007 163.644 207.985 170.471L209.142 171.809L209.172 171.842L209.2 171.875L215.528 179.315L216.599 180.58C222.131 187.183 230.145 197.901 232.654 210.995C234.196 219.047 233.758 228.435 229.297 237.661C224.996 246.556 218.193 252.743 211.434 256.988L211.435 256.989L204.906 261.095C195.446 267.94 171.396 282.061 137.507 277.124L137.508 277.125C95.3609 270.988 61.1118 238.936 33.6406 195.074L32.3615 193.018C5.7069 149.835 -7.62767 105.827 4.97831 65.858C15.2756 33.1734 38.4326 17.7086 48.7311 12.1601L55.1778 8.09368L55.2228 8.06515L55.2688 8.03677C62.045 3.79678 70.5897 0.364957 80.48 0.368656ZM99.5656 50.1915C92.9748 35.2805 84.8802 24.8975 71.1818 33.4687L63.7734 38.1406C57.8351 41.1879 40.9596 51.473 33.5883 74.8814L33.1863 76.2032C25.0025 104.065 33.6898 138.701 59.0537 179.13C84.7782 220.21 112.667 243.191 141.831 247.439C166.068 250.97 182.716 240.277 188.027 236.273L195.46 231.596C209.125 223.027 203.321 211.213 192.717 198.8L186.348 191.312C175.749 178.924 164.32 170.636 150.591 179.195L142.381 184.38C136.381 188.139 123.201 208.029 92.0764 158.398C61.4372 109.597 83.8807 105.683 90.3152 102.027L90.6094 101.853L98.8598 96.6652C112.529 88.0731 110.057 74.1722 103.511 59.2357L99.5656 50.1915Z" fill="#D8DF63"/>
</svg>
