<svg width="234" height="279" viewBox="0 0 234 279" fill="none" xmlns="http://www.w3.org/2000/svg">
<path d="M80.4795 0.368595C90.7204 0.37243 99.3562 4.05871 105.931 8.94439C116.62 16.8867 122.79 28.7468 126.33 36.5573L127.004 38.0625L127.033 38.1284L127.062 38.1952L130.988 47.1928L131.689 48.8202C135.241 57.1842 139.278 68.9114 138.739 81.6021C138.051 97.8057 130.069 112.478 114.829 122.06L114.829 122.061L108.559 126.003C110.052 129.493 112.445 134.228 116.227 140.418L117.483 142.445L117.491 142.458C122.023 149.684 125.685 154.521 128.452 157.695L134.568 153.831L134.644 153.784L134.72 153.737C149.989 144.218 166.665 143.425 181.551 149.863C193.209 154.905 202.007 163.644 207.984 170.471L209.142 171.809L209.171 171.842L209.199 171.875L215.527 179.315L216.598 180.58C222.13 187.183 230.144 197.901 232.653 210.995C234.196 219.047 233.757 228.435 229.296 237.661C224.996 246.555 218.193 252.743 211.434 256.988L211.435 256.989L204.906 261.095C195.446 267.94 171.395 282.061 137.507 277.124L137.508 277.125C95.3604 270.987 61.1113 238.936 33.6401 195.073L32.361 193.018C5.70641 149.835 -7.62816 105.827 4.97783 65.8579C15.2751 33.1733 38.4321 17.7086 48.7306 12.16L55.1773 8.09362L55.2223 8.06509L55.2683 8.03671C62.0445 3.79672 70.5892 0.364896 80.4795 0.368595ZM99.5651 50.1915C92.9743 35.2804 84.8797 24.8974 71.1814 33.4687L63.7729 38.1405C57.8346 41.1878 40.9591 51.473 33.5878 74.8813L33.1859 76.2032C25.002 104.065 33.6893 138.701 59.0532 179.13C84.7777 220.21 112.666 243.191 141.831 247.439C166.068 250.97 182.715 240.277 188.026 236.272L195.459 231.596C209.124 223.027 203.32 211.212 192.716 198.8L186.348 191.312C175.748 178.924 164.319 170.636 150.591 179.194L142.381 184.38C136.38 188.139 123.2 208.029 92.0759 158.397C61.4367 109.597 83.8802 105.683 90.3147 102.027L90.6089 101.853L98.8593 96.6652C112.529 88.0731 110.056 74.1721 103.51 59.2356L99.5651 50.1915Z" fill="#F1F1F1"/>
</svg>
