<svg width="419" height="425" viewBox="0 0 419 425" fill="none" xmlns="http://www.w3.org/2000/svg">
<path d="M323.202 2.24125C308.801 -0.822478 295.501 1.74331 284.579 6.73967C266.577 14.9751 253.464 30.6055 244.954 42.1239L243.314 44.3689L243.202 44.5251L232.532 59.4296C223.718 71.8427 213.37 88.84 210.053 108.446C206.037 132.195 212.967 155.879 232.396 174.766L232.395 174.766L244.389 186.429L244.488 186.524L244.586 186.618C245.773 187.757 247.09 188.884 248.306 189.878C244.697 196.617 237.171 207.318 222.36 222.757L220.879 224.292L220.864 224.306C205.03 240.632 194.062 248.888 187.207 252.824C186.165 251.631 184.973 250.335 183.766 249.157L183.767 249.156L171.84 237.512L171.669 237.345C152.172 218.536 128.294 212.34 104.677 217.083C85.1804 220.998 68.5113 231.86 56.3843 241.03L55.2251 241.913L55.1782 241.947L55.1323 241.983L41.8278 252.223C30.3665 261.006 13.5555 275.15 5.33765 294.626C0.665233 305.699 -1.50069 319.081 2.00621 333.389C5.40185 347.244 13.2102 358.273 21.9697 366.767L21.9707 366.766L31.66 376.191C43.7726 389.702 76.6153 420.159 131.571 423.754L131.57 423.755C199.518 428.204 265.386 389.53 326.331 326.61C387.308 263.756 423.963 196.792 417.474 129.058C412.237 74.2093 380.838 42.3882 366.929 30.6539L357.181 21.1515C348.41 12.6621 337.146 5.20776 323.202 2.24125ZM275.724 67.8117C292.125 45.1364 309.431 30.6008 329.361 49.8929L340.127 60.3877C349.006 67.6286 373.656 90.9346 377.656 132.872C382.477 183.193 355.555 239.047 297.6 298.78C239.712 358.544 184.666 387.146 134.183 383.84C92.228 381.096 68.1055 357.186 60.6228 348.563L49.8163 338.052C30.251 319.078 43.484 301.574 65.1197 284.773L66.157 283.973L79.5288 273.682C101.757 256.677 123.91 246.851 143.896 266.133L155.823 277.778C164.553 286.235 179.564 324.342 249.578 252.155C318.479 181.19 282.2 166.589 272.705 158.148L272.274 157.75L260.279 146.087C240.405 126.771 249.529 104.318 265.864 81.5839L275.724 67.8117Z" fill="#D8DF63"/>
</svg>
