<svg width="419" height="425" viewBox="0 0 419 425" fill="none" xmlns="http://www.w3.org/2000/svg">
<path d="M323.202 2.24101C308.801 -0.822722 295.501 1.74306 284.579 6.73942C266.577 14.9748 253.464 30.6053 244.954 42.1237L243.314 44.3686L243.202 44.5249L232.532 59.4294C223.718 71.8425 213.37 88.8398 210.053 108.446C206.037 132.194 212.967 155.878 232.396 174.765L232.395 174.766L244.389 186.428L244.488 186.524L244.586 186.618C245.773 187.756 247.09 188.884 248.306 189.877C244.697 196.617 237.171 207.318 222.36 222.756L220.879 224.291L220.864 224.306C205.03 240.632 194.062 248.888 187.207 252.824C186.165 251.631 184.973 250.335 183.766 249.157L183.767 249.156L171.84 237.511L171.669 237.345C152.172 218.535 128.294 212.339 104.677 217.082C85.1804 220.998 68.5113 231.86 56.3843 241.03L55.2251 241.912L55.1782 241.947L55.1323 241.983L41.8278 252.223C30.3665 261.005 13.5555 275.15 5.33765 294.625C0.665233 305.698 -1.50069 319.081 2.00621 333.389C5.40185 347.243 13.2102 358.272 21.9697 366.767L21.9707 366.766L31.66 376.191C43.7726 389.702 76.6153 420.159 131.571 423.754L131.57 423.755C199.518 428.204 265.386 389.529 326.331 326.609C387.308 263.756 423.963 196.791 417.474 129.058C412.237 74.209 380.838 42.388 366.929 30.6536L357.181 21.1512C348.41 12.6619 337.146 5.20751 323.202 2.24101ZM275.724 67.8114C292.125 45.1361 309.431 30.6006 329.361 49.8926L340.127 60.3875C349.006 67.6284 373.656 90.9343 377.656 132.872C382.477 183.193 355.555 239.047 297.6 298.78C239.712 358.543 184.666 387.145 134.183 383.84C92.228 381.095 68.1055 357.185 60.6228 348.562L49.8163 338.051C30.251 319.078 43.484 301.574 65.1197 284.773L66.157 283.973L79.5288 273.682C101.757 256.677 123.91 246.851 143.896 266.132L155.823 277.777C164.553 286.235 179.564 324.342 249.578 252.155C318.479 181.189 282.2 166.589 272.705 158.147L272.274 157.749L260.279 146.087C240.405 126.771 249.529 104.317 265.864 81.5836L275.724 67.8114Z" fill="#F1F1F1"/>
</svg>
