<svg width="401" height="413" viewBox="0 0 401 413" fill="none" xmlns="http://www.w3.org/2000/svg">
<path d="M158.812 31.6306C178.523 25.8961 199.455 31.6226 213.587 46.4101L213.589 46.4095L253.5 87.854L309.176 79.024L309.253 79.0112L309.331 78.9995L310.285 78.862C330.003 76.1944 349.818 84.2808 361.819 100.528L362.393 101.32L362.426 101.364L362.457 101.41C374.605 118.623 375.645 140.841 365.855 159.055L365.854 159.055L338.873 209.71L364.393 259.899L364.755 260.614C379.841 290.92 363.79 327.11 331.892 337.002C323.657 339.556 314.734 340.154 305.978 338.6L305.978 338.601L249.356 328.571L209.447 368.427L209.446 368.426C194.738 383.138 173.465 387.959 154.204 381.831L153.288 381.53L153.25 381.518L153.214 381.505C133.49 374.79 119.288 357.672 116.61 336.908L109.152 280.326L58.4485 254.49L58.3855 254.458L58.3235 254.427C39.9451 244.948 28.2311 226.04 28.5082 204.973L28.5085 204.918L28.5099 204.863C28.8656 183.952 41.0904 165.384 59.6324 156.435L59.7036 156.401L59.7741 156.368L111.163 131.914L120.098 75.6093C123.367 54.9974 137.821 38.1312 157.871 31.9132L158.812 31.6306Z" stroke="#D8DF63" stroke-width="57"/>
</svg>
