<svg width="390" height="364" viewBox="0 0 390 364" fill="none" xmlns="http://www.w3.org/2000/svg">
<path d="M216.12 38.9847L164.776 9.66636C162.334 8.2719 159.431 7.90519 156.721 8.65909C154.038 9.43029 151.717 11.2238 150.349 13.6836L98.7751 106.588L216.12 38.9847Z" fill="#E8F5EE"/>
<path d="M49.5735 151.206C42.8863 155.067 34.256 152.755 30.395 146.067C26.5341 139.38 28.8466 130.75 35.5338 126.889L76.5084 103.232L103.078 55.4686L21.4941 102.571C3.49933 112.961 -3.87432 134.726 3.1758 153.677C3.49422 154.79 3.69105 155.973 4.32284 157.067L111.376 342.488C122.958 362.55 148.849 369.488 168.911 357.905L375.608 238.569C388.982 230.847 393.607 213.586 385.885 200.212L371.845 175.894L341.449 193.444C311.295 210.853 272.555 200.472 255.146 170.318C237.736 140.165 248.117 101.424 278.27 84.0149L308.667 66.4655L294.627 42.148C286.905 28.7734 269.645 24.1483 256.27 31.87L49.5735 151.206ZM230.072 14.5723C222.982 2.292 207.966 -2.65652 195.138 2.64223L237.092 26.7311L230.072 14.5723Z" fill="#E8F5EE"/>
<path d="M334.395 75.9289L288.8 102.253C268.69 113.864 261.773 139.678 273.384 159.789C284.994 179.899 310.809 186.816 330.919 175.206L376.514 148.881C381.548 145.975 383.274 139.531 380.368 134.497L348.779 79.7831C345.872 74.7494 339.428 73.0227 334.395 75.9289ZM316.879 150.888C310.168 154.763 301.576 152.461 297.701 145.749C293.826 139.037 296.128 130.445 302.84 126.571C309.551 122.696 318.143 124.998 322.018 131.71C325.893 138.421 323.591 147.013 316.879 150.888Z" fill="#E8F5EE"/>
</svg>
