<svg width="358" height="405" viewBox="0 0 358 405" fill="none" xmlns="http://www.w3.org/2000/svg">
<path d="M39.9491 50.356C58.7516 -6.8385 138.805 -18.7959 170.569 35.9739C175.485 37.5666 184.095 40.4879 193.447 45.5L193.446 45.5003C199.013 48.4836 204.278 51.8272 209.249 55.4861C225.398 52.0451 242.989 54.1172 259.254 63.2911L260.334 63.9118L260.343 63.9174C343.832 112.831 383.491 220.593 337.951 308.702L337.949 308.703C298.179 385.641 202.617 423.915 120.724 395.681L120.721 395.68C26.9359 363.339 -18.7384 257.956 7.95872 164.916L7.96742 164.885L7.97648 164.855C12.0097 150.858 19.9536 139.07 30.2244 130.253C28.0837 101.547 31.7334 75.4361 39.9308 50.4128L39.9402 50.3838L39.9491 50.356ZM121.986 65.911C115.928 53.8116 98.2682 55.4725 94.0981 68.157L93.6704 69.4822C84.8007 97.346 83.2462 127.91 95.1732 168.598C96.4905 173.121 91.0905 176.733 87.527 173.719C78.3138 165.793 65.6639 170.518 62.7479 180.637C43.3471 248.25 77.6894 320.547 139.303 341.793C194.442 360.804 260.537 334.332 287.315 282.529C317.231 224.648 292.2 148.644 231.53 113.099C222.033 107.538 209.943 113.778 208.858 124.794L208.795 125.382C208.726 125.971 208.639 126.563 208.538 127.14C207.778 131.405 202.115 132.517 199.778 128.95L199.669 128.776C190.967 114.29 180.231 103.412 167.736 96.4057L166.52 95.7395C161.673 93.1417 157.14 91.552 153.044 90.2152L151.317 89.656C144.178 87.3485 131.341 83.9219 122.409 66.7402L121.986 65.911ZM137.348 199.903C141.981 186.977 160.788 188.489 163.289 201.981L163.5 203.068C165.763 214.191 170.522 221.98 176.964 225.06C178.108 225.608 183.949 228.135 189.376 226.099L189.899 225.887C194.534 223.87 198.021 218.726 199.467 211.774C201.549 201.76 213.463 197.536 221.276 204.025C251.627 229.231 247.475 278.959 208.249 294.668C192.637 300.919 174.859 300.199 162.042 293.845C143.007 284.408 137.087 264.174 134.558 255.534C129.444 238.051 130.382 219.334 137.348 199.903ZM248.531 99.4254L248.538 99.4365L248.544 99.4466C248.54 99.4396 248.536 99.4325 248.531 99.4254Z" fill="#E8F5EE"/>
</svg>
