<svg width="340" height="360" viewBox="0 0 340 360" fill="none" xmlns="http://www.w3.org/2000/svg">
<path d="M100.086 47.1591C168.023 8.46642 254.444 32.265 293.142 100.211C319.516 146.518 311.349 202.127 301.354 239.195L300.876 240.947C295.429 260.722 288.723 277.993 283.417 290.276L283.415 290.277C280.747 296.454 278.393 301.463 276.665 305.006C275.801 306.774 275.091 308.186 274.572 309.2L274.565 309.213L274.558 309.226C274.331 309.668 274.134 310.049 273.971 310.36L273.922 310.463L273.625 311.019C273.614 311.038 273.602 311.057 273.592 311.077L273.593 311.077L273.58 311.1C266.691 323.915 253.084 331.641 238.579 331.026L238.544 331.025L238.428 331.02L238.314 331.014L238.228 331.01L238.195 331.008L238.161 331.006L237.864 330.991L237.864 330.992C237.495 330.972 237.03 330.945 236.482 330.912L236.468 330.911L236.453 330.91C235.316 330.84 233.74 330.731 231.778 330.57L230.232 330.441C226.454 330.113 221.506 329.612 215.666 328.863L215.665 328.864C202.807 327.215 185.255 324.308 166.181 319.215L164.33 318.715C127.256 308.59 74.0226 287.311 47.2301 240.269C8.53192 172.323 32.1499 85.8518 100.086 47.1591ZM156.294 145.847C142.886 153.484 138.166 170.596 145.856 184.097C153.545 197.599 170.672 202.27 184.079 194.633C197.487 186.997 202.206 169.884 194.517 156.383C186.827 142.881 169.701 138.211 156.294 145.847Z" stroke="#E8F5EE" stroke-width="57"/>
</svg>
