<svg width="120" height="24" viewBox="0 0 120 24" fill="none" xmlns="http://www.w3.org/2000/svg">
<path d="M0.738647 0H7.44577V2.70541H4.20369V21.2946H7.44577V24H0.738647V0Z" fill="#28421F"/>
<path d="M24.4576 5.63327L23.3729 8.32064C21.4566 7.46092 19.5704 7.03407 17.7023 7.03407C15.4365 7.03407 14.3036 7.50301 14.3036 8.44088C14.3036 9.11423 14.9785 9.54108 16.3283 9.70942L20.4623 10.2084C21.9628 10.3888 23.1078 10.8517 23.8972 11.5912C24.6866 12.3307 25.0844 13.3166 25.0844 14.5371C25.0844 16.004 24.5119 17.1102 23.3669 17.8677C22.2219 18.6253 20.5346 18.998 18.317 18.998C15.6775 18.998 13.1345 18.487 10.6818 17.4589L11.8208 14.6333C13.948 15.6733 16.1536 16.1904 18.4375 16.1904C20.7214 16.1904 21.8242 15.6854 21.8242 14.6693C21.8242 14.2966 21.6555 13.996 21.318 13.7796C20.9806 13.5631 20.4442 13.4128 19.703 13.3287L15.7137 12.8236C14.183 12.6313 13.02 12.1864 12.2306 11.483C11.4411 10.7856 11.0434 9.85371 11.0434 8.68738C11.0434 7.26854 11.634 6.18036 12.8211 5.42886C14.0022 4.67735 15.7137 4.2986 17.9494 4.2986C19.0703 4.2986 20.1007 4.4008 21.0348 4.61122C21.9447 4.78557 23.0837 5.12826 24.4516 5.63327H24.4576Z" fill="#28421F"/>
<path d="M29.1761 4.6473H32.4905V18.6553H29.1761V4.6473Z" fill="#28421F"/>
<path d="M37.5405 4.6473H46.1157C47.7669 4.6473 49.0685 5.06213 50.0146 5.8978C50.9728 6.72746 51.4549 7.86974 51.4549 9.32465C51.4549 10.7796 50.9848 11.8497 50.0387 12.6433C49.0926 13.4429 47.7789 13.8397 46.0976 13.8397H41.813L43.0484 10.9719H46.4291C46.9714 10.9719 47.3872 10.8156 47.6885 10.503C47.9898 10.1904 48.1405 9.76353 48.1405 9.21643C48.1405 8.66934 47.9838 8.2485 47.6644 7.95391C47.345 7.65932 46.8991 7.50902 46.3146 7.50902H40.8549V18.6493H37.5405V4.6473Z" fill="#28421F"/>
<path d="M61.4041 4.6473H70.5639C72.197 4.6473 73.4564 4.95391 74.3423 5.56112C75.2281 6.16834 75.668 7.04609 75.668 8.18838C75.668 9.46293 75.1679 10.4489 74.1615 11.1283V11.2004C75.5174 11.994 76.1983 13.1543 76.1983 14.6693C76.1983 15.9679 75.7404 16.9539 74.8184 17.6333C73.8963 18.3126 72.5706 18.6553 70.829 18.6553H61.4041V4.6473ZM64.7185 7.50902V15.7876H70.8833C71.51 15.7876 71.9981 15.6613 72.3476 15.4028C72.6971 15.1443 72.8719 14.7836 72.8719 14.3206C72.8719 13.8577 72.6971 13.515 72.3476 13.2625C71.9981 13.01 71.51 12.8838 70.8833 12.8838H65.6767L66.8337 10.0581H70.8833C71.3714 10.0581 71.7571 9.94389 72.0403 9.71543C72.3235 9.48697 72.4621 9.17435 72.4621 8.78357C72.4621 8.39279 72.3235 8.08016 72.0403 7.85171C71.7571 7.62325 71.3714 7.51503 70.8833 7.51503H64.7185V7.50902Z" fill="#28421F"/>
<path d="M80.1575 16.978C78.5365 15.6373 77.729 13.8637 77.729 11.6513C77.729 9.43888 78.5365 7.65932 80.1575 6.31263C81.8027 4.96593 83.942 4.29259 86.5814 4.29259C89.2209 4.29259 91.3602 4.96593 93.0053 6.31263C94.6384 7.65331 95.452 9.43287 95.452 11.6513C95.452 13.8697 94.6384 15.6373 93.0053 16.978C91.3602 18.3247 89.2209 18.998 86.5814 18.998C83.942 18.998 81.8027 18.3247 80.1575 16.978ZM82.6343 14.9399C83.6407 15.7756 84.9483 16.1904 86.5634 16.1904C88.1784 16.1904 89.5041 15.7756 90.5346 14.9399C91.553 14.0982 92.0592 13.004 92.0592 11.6513C92.0592 10.2986 91.553 9.19239 90.5346 8.37475C89.5102 7.52706 88.1844 7.10621 86.5634 7.10621C84.9423 7.10621 83.6407 7.52104 82.6343 8.35671C81.6279 9.19239 81.1277 10.2866 81.1277 11.6513C81.1277 13.016 81.6279 14.1042 82.6343 14.9399Z" fill="#28421F"/>
<path d="M107.715 4.6473H111.614L106.022 11.5912L111.897 18.6553H107.733L103.611 13.7315L99.6763 18.6553H95.7774L101.665 11.3687L96.0727 4.65331H100.237L104.057 9.25852L107.721 4.65331L107.715 4.6473Z" fill="#28421F"/>
<path d="M119.261 24H112.554V21.2946H115.796V2.70541H112.554V0H119.261V24Z" fill="#28421F"/>
</svg>
