<svg width="252" height="51" viewBox="0 0 252 51" fill="none" xmlns="http://www.w3.org/2000/svg">
<path d="M0 0H14.2526V5.749H7.36323V45.251H14.2526V51H0V0Z" fill="#E8F5EE"/>
<path d="M50.4029 11.9707L48.0979 17.6814C44.0257 15.8545 40.0175 14.9474 36.0478 14.9474C31.2329 14.9474 28.8254 15.9439 28.8254 17.9369C28.8254 19.3677 30.2597 20.2748 33.1281 20.6325L41.9128 21.6929C45.1014 22.0762 47.5344 23.0599 49.212 24.6313C50.8895 26.2027 51.7347 28.2978 51.7347 30.8913C51.7347 34.0085 50.5181 36.3592 48.0851 37.9689C45.652 39.5787 42.0664 40.3707 37.354 40.3707C31.7451 40.3707 26.3411 39.2848 21.1293 37.1002L23.5495 31.0957C28.0699 33.3059 32.7568 34.4046 37.6101 34.4046C42.4634 34.4046 44.8068 33.3314 44.8068 31.1723C44.8068 30.3803 44.4483 29.7415 43.7312 29.2816C43.014 28.8216 41.8743 28.5023 40.2993 28.3234L31.8219 27.2503C28.5693 26.8414 26.0978 25.896 24.4203 24.4013C22.7428 22.9193 21.8976 20.9391 21.8976 18.4607C21.8976 15.4456 23.1525 13.1333 25.6753 11.5363C28.1852 9.93938 31.8219 9.13452 36.5728 9.13452C38.9547 9.13452 41.1444 9.3517 43.1293 9.79885C45.0629 10.1693 47.4832 10.8975 50.3901 11.9707H50.4029Z" fill="#E8F5EE"/>
<path d="M60.4297 9.8755H67.4728V39.6425H60.4297V9.8755Z" fill="#E8F5EE"/>
<path d="M78.2039 9.8755H96.4262C99.935 9.8755 102.701 10.757 104.711 12.5328C106.748 14.2958 107.772 16.7232 107.772 19.8149C107.772 22.9066 106.773 25.1806 104.763 26.867C102.752 28.5661 99.9606 29.4093 96.3878 29.4093H87.283L89.9082 23.3154H97.0921C98.2446 23.3154 99.1282 22.9832 99.7685 22.3189C100.409 21.6546 100.729 20.7475 100.729 19.5849C100.729 18.4223 100.396 17.5281 99.7173 16.9021C99.0386 16.2761 98.091 15.9567 96.8488 15.9567H85.2469V39.6298H78.2039V9.8755Z" fill="#E8F5EE"/>
<path d="M128.914 9.8755H148.379C151.849 9.8755 154.525 10.5271 156.408 11.8174C158.29 13.1077 159.225 14.9729 159.225 17.4003C159.225 20.1087 158.162 22.2039 156.024 23.6475V23.8009C158.905 25.4872 160.352 27.9529 160.352 31.1723C160.352 33.9319 159.379 36.0271 157.419 37.4707C155.46 38.9143 152.643 39.6425 148.942 39.6425H128.914V9.8755ZM135.957 15.9567V33.5486H149.057C150.389 33.5486 151.426 33.2803 152.169 32.731C152.912 32.1816 153.283 31.4151 153.283 30.4314C153.283 29.4477 152.912 28.7194 152.169 28.1829C151.426 27.6463 150.389 27.378 149.057 27.378H137.993L140.452 21.3735H149.057C150.095 21.3735 150.914 21.1308 151.516 20.6453C152.118 20.1598 152.412 19.4955 152.412 18.6651C152.412 17.8347 152.118 17.1703 151.516 16.6849C150.914 16.1994 150.095 15.9694 149.057 15.9694H135.957V15.9567Z" fill="#E8F5EE"/>
<path d="M168.765 36.0782C165.32 33.2292 163.604 29.4604 163.604 24.759C163.604 20.0576 165.32 16.2761 168.765 13.4143C172.261 10.5526 176.807 9.12174 182.416 9.12174C188.025 9.12174 192.571 10.5526 196.067 13.4143C199.537 16.2633 201.266 20.0448 201.266 24.759C201.266 29.4732 199.537 33.2292 196.067 36.0782C192.571 38.9399 188.025 40.3707 182.416 40.3707C176.807 40.3707 172.261 38.9399 168.765 36.0782ZM174.028 31.7472C176.167 33.5231 178.946 34.4046 182.378 34.4046C185.809 34.4046 188.627 33.5231 190.816 31.7472C192.981 29.9587 194.056 27.6335 194.056 24.759C194.056 21.8845 192.981 19.5338 190.816 17.7963C188.639 15.995 185.822 15.1007 182.378 15.1007C178.933 15.1007 176.167 15.9822 174.028 17.758C171.89 19.5338 170.827 21.859 170.827 24.759C170.827 27.6591 171.89 29.9714 174.028 31.7472Z" fill="#E8F5EE"/>
<path d="M227.325 9.8755H235.61L223.727 24.6313L236.212 39.6425H227.364L218.605 29.1794L210.243 39.6425H201.957L214.468 24.1586L202.585 9.88828H211.433L219.552 19.6744L227.338 9.88828L227.325 9.8755Z" fill="#E8F5EE"/>
<path d="M251.861 51H237.608V45.251H244.498V5.749H237.608V0H251.861V51Z" fill="#E8F5EE"/>
</svg>
